<svg xmlns="http://www.w3.org/2000/svg" viewBox="0 0 1100 1290" font-family="Helvetica, Arial, sans-serif">
<!--
CONCEPT D — COMPOSITE OVERVIEW FIGURE (revision 3, publication pass)
Semantic 5-role palette (validated CVD-safe, grayscale-safe):
  BLUE   #2E86C1 benchmark / DeFrABB / internal product
  ORANGE #CA6F1E external world: community methods, callsets, Miqa
  PURPLE #7D3C98 assessment / RIDE
  TEAL   #0F8A6D status: pass / official release (never reused)
  RED    #C0392B status: unreliable / error / revise (never reused)
  Variant marks (ticks, SV blocks) are ink/slate — not a hue.
Dash grammar: red 7,4 = fail/revise; gray dotted 2,4 = next version.
Text tokens: labels in ink/muted; color lives on marks and box fills.
Print: 180 x 211 mm; min real-label font 12; Affinity-safe SVG 1.1.
-->
<g id="bg">
  <rect x="0" y="0" width="1100" height="1290" fill="#FFFFFF"/>
</g>

<!-- ═══ GIAB DEVELOPMENT CYCLE — ring + revise hub (y=10-480) ═══ -->
<g id="cycle">
  <rect x="10" y="10" width="1080" height="470" rx="8" fill="#F7F8FA" stroke="#95A5A6" stroke-width="1.2"/>
  <text x="550" y="44" font-size="20" font-weight="bold" text-anchor="middle" fill="#1C2833">GIAB Benchmark Development Cycle</text>

  <!-- Station 1: Inputs (neutral) -->
  <rect x="200" y="62" width="180" height="90" rx="7" fill="#EAECEE" stroke="#85929E" stroke-width="1.5"/>
  <text x="290" y="90" font-size="14" font-weight="bold" text-anchor="middle" fill="#1C2833">HG002 Q100</text>
  <text x="290" y="107" font-size="14" font-weight="bold" text-anchor="middle" fill="#1C2833">diploid assembly</text>
  <text x="290" y="128" font-size="13" text-anchor="middle" fill="#566573">+ GRCh37 / GRCh38 / CHM13</text>

  <!-- Station 2: DeFrABB (BLUE = panel a) -->
  <rect x="720" y="62" width="180" height="90" rx="7" fill="#D6EAF8" stroke="#2E86C1" stroke-width="1.8"/>
  <text x="810" y="90" font-size="14" font-weight="bold" text-anchor="middle" fill="#154360">Automated DeFrABB</text>
  <text x="810" y="107" font-size="14" font-weight="bold" text-anchor="middle" fill="#154360">pipeline</text>
  <text x="810" y="128" font-size="13" text-anchor="middle" fill="#1A5276">assembly &#x2192; VCF + BED</text>
  <rect x="872" y="126" width="20" height="20" rx="4" fill="#FFFFFF" stroke="#2E86C1" stroke-width="1.2"/>
  <text x="882" y="141" font-size="13" font-weight="bold" text-anchor="middle" fill="#154360">a</text>

  <!-- Station 3: Draft public release (ORANGE family: external phase) -->
  <rect x="885" y="220" width="180" height="90" rx="7" fill="#FDF2E3" stroke="#CA6F1E" stroke-width="1.4"/>
  <text x="975" y="252" font-size="14" font-weight="bold" text-anchor="middle" fill="#935116">Draft public release</text>
  <text x="975" y="274" font-size="13" text-anchor="middle" fill="#935116">community use</text>
  <text x="975" y="290" font-size="13" text-anchor="middle" fill="#935116">&amp; feedback</text>

  <!-- Station 4: External evaluation (ORANGE = panel b) -->
  <rect x="720" y="378" width="180" height="90" rx="7" fill="#FDEBD0" stroke="#CA6F1E" stroke-width="1.8"/>
  <text x="810" y="404" font-size="14" font-weight="bold" text-anchor="middle" fill="#935116">External evaluation</text>
  <text x="810" y="424" font-size="13" text-anchor="middle" fill="#935116">Miqa curation,</text>
  <text x="810" y="440" font-size="13" text-anchor="middle" fill="#935116">multi-tech evidence</text>
  <rect x="872" y="442" width="20" height="20" rx="4" fill="#FFFFFF" stroke="#CA6F1E" stroke-width="1.2"/>
  <text x="882" y="457" font-size="13" font-weight="bold" text-anchor="middle" fill="#935116">b</text>

  <!-- Station 5: RIDE assessment (PURPLE = panel c) -->
  <rect x="200" y="378" width="180" height="90" rx="7" fill="#E8DAEF" stroke="#7D3C98" stroke-width="1.8"/>
  <text x="290" y="404" font-size="14" font-weight="bold" text-anchor="middle" fill="#4A235A">RIDE principle</text>
  <text x="290" y="421" font-size="14" font-weight="bold" text-anchor="middle" fill="#4A235A">assessment</text>
  <text x="290" y="441" font-size="13" text-anchor="middle" fill="#4A235A">fit for purpose?</text>
  <rect x="352" y="442" width="20" height="20" rx="4" fill="#FFFFFF" stroke="#7D3C98" stroke-width="1.2"/>
  <text x="362" y="457" font-size="13" font-weight="bold" text-anchor="middle" fill="#4A235A">c</text>

  <!-- Station 6: Official release (TEAL = pass status) -->
  <rect x="25" y="220" width="180" height="90" rx="7" fill="#D1F2EB" stroke="#0F8A6D" stroke-width="2"/>
  <text x="115" y="250" font-size="15" font-weight="bold" text-anchor="middle" fill="#0E6655">Official GIAB</text>
  <text x="115" y="268" font-size="15" font-weight="bold" text-anchor="middle" fill="#0E6655">release</text>
  <text x="115" y="288" font-size="13" text-anchor="middle" fill="#0E6655">HG002 v5.0q</text>
  <text x="115" y="303" font-size="13" text-anchor="middle" fill="#0E6655">benchmark sets</text>

  <!-- Central hub: revise & re-run (RED status, sole owner of the phrase) -->
  <rect x="430" y="225" width="240" height="80" rx="7" fill="#FDF5F3" stroke="#C0392B" stroke-width="1.6" stroke-dasharray="7,4"/>
  <text x="550" y="253" font-size="14" font-weight="bold" text-anchor="middle" fill="#C0392B">Revise parameters</text>
  <text x="550" y="271" font-size="14" font-weight="bold" text-anchor="middle" fill="#C0392B">&amp; exclusions</text>
  <text x="550" y="291" font-size="13" text-anchor="middle" fill="#C0392B">re-run DeFrABB</text>

  <!-- Ring arrows (clockwise, ink, stroke 2, uniform 11x9 heads) -->
  <g id="cycle-ring-edges">
    <line x1="380" y1="107" x2="708" y2="107" stroke="#2C3E50" stroke-width="2"/>
    <polygon points="719,107 708,102.5 708,111.5" fill="#2C3E50"/>
    <path d="M 900 107 L 967 107 Q 975 107 975 115 L 975 208" fill="none" stroke="#2C3E50" stroke-width="2"/>
    <polygon points="975,219 970.5,208 979.5,208" fill="#2C3E50"/>
    <path d="M 975 310 L 975 415 Q 975 423 967 423 L 912 423" fill="none" stroke="#2C3E50" stroke-width="2"/>
    <polygon points="901,423 912,418.5 912,427.5" fill="#2C3E50"/>
    <line x1="720" y1="423" x2="392" y2="423" stroke="#2C3E50" stroke-width="2"/>
    <polygon points="381,423 392,418.5 392,427.5" fill="#2C3E50"/>
    <!-- RIDE → Official release: TEAL pass -->
    <path d="M 200 423 L 123 423 Q 115 423 115 415 L 115 322" fill="none" stroke="#0F8A6D" stroke-width="2"/>
    <polygon points="115,311 110.5,322 119.5,322" fill="#0F8A6D"/>
    <text x="146" y="415" font-size="14" font-weight="bold" fill="#0E6655">pass</text>
    <!-- Official release → Inputs: dotted gray, next version -->
    <path d="M 115 220 L 115 115 Q 115 107 123 107 L 188 107" fill="none" stroke="#95A5A6" stroke-width="1.6" stroke-dasharray="2,4" stroke-linecap="round"/>
    <polygon points="199,107 188,102.5 188,111.5" fill="#95A5A6"/>
    <text x="128" y="172" font-size="13" font-style="italic" fill="#7F8C8D">next benchmark</text>
    <text x="128" y="188" font-size="13" font-style="italic" fill="#7F8C8D">version</text>
  </g>

  <!-- Checkpoint spokes into hub (red 7,4 dash, computed heads) -->
  <g id="cycle-hub-spokes">
    <!-- Draft release → hub: feedback -->
    <line x1="885" y1="265" x2="679" y2="265" stroke="#C0392B" stroke-width="1.6" stroke-dasharray="7,4"/>
    <polygon points="670,265 679,261 679,269" fill="#C0392B"/>
    <text x="778" y="258" font-size="12" font-style="italic" text-anchor="middle" fill="#C0392B">feedback</text>
    <!-- External eval → hub: benchmark errors -->
    <line x1="770" y1="378" x2="648.7" y2="309.9" stroke="#C0392B" stroke-width="1.6" stroke-dasharray="7,4"/>
    <polygon points="640,305 650.7,306.4 646.8,313.4" fill="#C0392B"/>
    <text x="742" y="352" font-size="12" font-style="italic" fill="#C0392B">benchmark errors</text>
    <!-- RIDE → hub: fail -->
    <line x1="330" y1="378" x2="451.3" y2="309.9" stroke="#C0392B" stroke-width="1.6" stroke-dasharray="7,4"/>
    <polygon points="460,305 449.3,306.4 453.2,313.4" fill="#C0392B"/>
    <text x="352" y="352" font-size="12" font-style="italic" fill="#C0392B">fail</text>
    <!-- Hub → DeFrABB: the re-run (arrow direction says it; no label) -->
    <line x1="655" y1="225" x2="746.9" y2="157.9" stroke="#C0392B" stroke-width="1.6" stroke-dasharray="7,4"/>
    <polygon points="755,152 749.3,161.1 744.6,154.7" fill="#C0392B"/>
  </g>
</g>

<!-- ═══ PANEL FRAMES (y=498-1278) ═══ -->
<g id="panel-frames">
  <rect x="10" y="498" width="350" height="780" rx="8" fill="#F4F9FD" stroke="#2E86C1" stroke-width="1.4"/>
  <rect x="20" y="508" width="24" height="24" rx="5" fill="#D6EAF8" stroke="#2E86C1" stroke-width="1.4"/>
  <text x="32" y="526" font-size="15" font-weight="bold" text-anchor="middle" fill="#154360">a</text>
  <text x="52" y="525" font-size="16" font-weight="bold" fill="#1B4F72">DeFrABB pipeline</text>

  <rect x="373" y="498" width="350" height="780" rx="8" fill="#FEF9F3" stroke="#CA6F1E" stroke-width="1.4"/>
  <rect x="383" y="508" width="24" height="24" rx="5" fill="#FDEBD0" stroke="#CA6F1E" stroke-width="1.4"/>
  <text x="395" y="526" font-size="15" font-weight="bold" text-anchor="middle" fill="#935116">b</text>
  <text x="415" y="525" font-size="16" font-weight="bold" fill="#935116">External evaluation &amp; curation</text>

  <rect x="736" y="498" width="354" height="780" rx="8" fill="#F9F5FB" stroke="#7D3C98" stroke-width="1.4"/>
  <rect x="746" y="508" width="24" height="24" rx="5" fill="#E8DAEF" stroke="#7D3C98" stroke-width="1.4"/>
  <text x="758" y="526" font-size="15" font-weight="bold" text-anchor="middle" fill="#4A235A">c</text>
  <text x="778" y="525" font-size="16" font-weight="bold" fill="#4A235A">RIDE principle</text>
</g>

<g id="panelA-zone1">
  <rect x="18" y="540" width="334" height="300" rx="6" fill="#FFFFFF" stroke="#C9D4DC" stroke-width="1"/>
  <text x="28" y="560" font-size="14" font-weight="bold" fill="#1C2833">1&#160;&#160;Assembly-based variant calling</text>

  <!-- Maternal haplotype (blue); large-SV segments in slate -->
  <text x="54" y="594" font-size="13" font-weight="bold" text-anchor="end" fill="#2C3E50">Mat.</text>
  <rect x="60" y="582" width="280" height="15" rx="5" fill="#AED6F1" stroke="#2980B9" stroke-width="1.2"/>
  <rect x="175" y="582" width="50" height="15" rx="3" fill="#4D5656"/>
  <rect x="100" y="582" width="3" height="15" fill="#2C3E50"/>
  <rect x="258" y="582" width="3" height="15" fill="#2C3E50"/>
  <rect x="322" y="582" width="3" height="15" fill="#2C3E50"/>

  <!-- Ribbons mat → ref: cool tints for 1:1, warm gray for size-changing -->
  <polygon points="60,597 175,597 175,652 60,652" fill="#D6E4F0" fill-opacity="0.55"/>
  <polygon points="175,597 225,597 177,652 173,652" fill="#E5DDD3" fill-opacity="0.8"/>
  <polygon points="225,597 293,597 243,652 175,652" fill="#D6E4F0" fill-opacity="0.55"/>
  <polygon points="293,597 297,597 285,652 245,652" fill="#E5DDD3" fill-opacity="0.8"/>
  <polygon points="297,597 340,597 330,652 285,652" fill="#D6E4F0" fill-opacity="0.55"/>
  <text x="196" y="630" font-size="13" font-weight="bold" fill="#1C2833">INS</text>
  <text x="262" y="630" font-size="13" font-weight="bold" fill="#1C2833">DEL</text>

  <!-- Reference (gray); deleted segment in slate -->
  <text x="54" y="664" font-size="13" font-weight="bold" text-anchor="end" fill="#2C3E50">Ref.</text>
  <rect x="60" y="652" width="270" height="15" rx="5" fill="#D5D8DC" stroke="#566573" stroke-width="1.2"/>
  <rect x="245" y="652" width="40" height="15" rx="3" fill="#4D5656"/>

  <!-- Ribbons ref → pat -->
  <polygon points="60,667 175,667 175,722 60,722" fill="#E4DEED" fill-opacity="0.55"/>
  <polygon points="173,667 177,667 225,722 175,722" fill="#E5DDD3" fill-opacity="0.8"/>
  <polygon points="175,667 243,667 293,722 225,722" fill="#E4DEED" fill-opacity="0.55"/>
  <polygon points="245,667 285,667 297,722 293,722" fill="#E5DDD3" fill-opacity="0.8"/>
  <polygon points="285,667 330,667 340,722 297,722" fill="#E4DEED" fill-opacity="0.55"/>

  <!-- Paternal haplotype (lavender, muted stroke) -->
  <text x="54" y="734" font-size="13" font-weight="bold" text-anchor="end" fill="#2C3E50">Pat.</text>
  <rect x="60" y="722" width="280" height="15" rx="5" fill="#DCD0E8" stroke="#8E7CA6" stroke-width="1.2"/>
  <rect x="175" y="722" width="50" height="15" rx="3" fill="#4D5656"/>
  <rect x="130" y="722" width="3" height="15" fill="#2C3E50"/>
  <rect x="258" y="722" width="3" height="15" fill="#2C3E50"/>

  <!-- Callouts (ink text, mark swatches) -->
  <rect x="28" y="752" width="16" height="10" rx="2" fill="#4D5656"/>
  <text x="50" y="761" font-size="13" fill="#2C3E50">Large SV segment: present in only one sequence</text>
  <polygon points="28,770 44,770 40,780 32,780" fill="#E5DDD3" stroke="#B3A491" stroke-width="0.7"/>
  <text x="50" y="779" font-size="13" fill="#2C3E50">Ribbon narrows where region sizes differ (INS/DEL)</text>
  <text x="28" y="800" font-size="13" font-style="italic" fill="#566573">Ribbons connect matched regions; large INS/DELs</text>
  <text x="28" y="816" font-size="13" font-style="italic" fill="#566573">change region size between assembly and reference</text>
  <text x="28" y="833" font-size="13" fill="#2C3E50">Output: variant calls (VCF) + diploid regions (BED)</text>
</g>

<g id="panelA-zone2">
  <rect x="18" y="852" width="334" height="252" rx="6" fill="#FFFFFF" stroke="#C9D4DC" stroke-width="1"/>
  <text x="28" y="872" font-size="14" font-weight="bold" fill="#1C2833">2&#160;&#160;Draft benchmark generation</text>

  <text x="28" y="896" font-size="13" fill="#2C3E50">Phased variants (SNVs, indels, SVs &#8212; all sizes)</text>
  <line x1="92" y1="912" x2="344" y2="912" stroke="#95A5A6" stroke-width="1"/>
  <circle cx="120" cy="905" r="4" fill="#2C3E50"/><line x1="120" y1="909" x2="120" y2="912" stroke="#2C3E50" stroke-width="1.2"/>
  <polygon points="148,912 156,912 152,902" fill="#2C3E50"/>
  <circle cx="210" cy="905" r="4" fill="#2C3E50"/><line x1="210" y1="909" x2="210" y2="912" stroke="#2C3E50" stroke-width="1.2"/>
  <rect x="246" y="901" width="7" height="7" fill="none" stroke="#2C3E50" stroke-width="1.2"/>
  <line x1="249" y1="908" x2="249" y2="912" stroke="#2C3E50" stroke-width="1.2"/>
  <circle cx="274" cy="905" r="4" fill="#2C3E50"/><line x1="274" y1="909" x2="274" y2="912" stroke="#2C3E50" stroke-width="1.2"/>
  <circle cx="318" cy="905" r="4" fill="#2C3E50"/><line x1="318" y1="909" x2="318" y2="912" stroke="#2C3E50" stroke-width="1.2"/>

  <text x="28" y="940" font-size="13" fill="#2C3E50">Diploid regions (1:1 alignment, both haplotypes)</text>
  <rect x="92" y="946" width="93" height="12" rx="3" fill="#A9CCE3" stroke="#2E86C1" stroke-width="1.2"/>
  <rect x="205" y="946" width="24" height="12" rx="3" fill="#A9CCE3" stroke="#2E86C1" stroke-width="1.2"/>
  <rect x="253" y="946" width="91" height="12" rx="3" fill="#A9CCE3" stroke="#2E86C1" stroke-width="1.2"/>

  <text x="28" y="986" font-size="13" fill="#2C3E50">Exclusions (gaps, repeat breaks, complex SVs, errors)</text>
  <rect x="130" y="992" width="20" height="12" fill="#F5B7B1" stroke="#C0392B" stroke-width="1.2"/>
  <rect x="213" y="992" width="16" height="12" fill="#F5B7B1" stroke="#C0392B" stroke-width="1.2"/>
  <rect x="296" y="992" width="14" height="12" fill="#F5B7B1" stroke="#C0392B" stroke-width="1.2"/>

  <text x="28" y="1032" font-size="13" font-weight="bold" fill="#1C2833">Benchmark = diploid regions &#x2212; exclusions</text>
  <rect x="92" y="1038" width="38" height="12" rx="3" fill="#2471A3" stroke="#1A5276" stroke-width="1.2"/>
  <rect x="150" y="1038" width="63" height="12" rx="3" fill="#2471A3" stroke="#1A5276" stroke-width="1.2"/>
  <rect x="253" y="1038" width="47" height="12" rx="3" fill="#2471A3" stroke="#1A5276" stroke-width="1.2"/>
  <rect x="310" y="1038" width="34" height="12" rx="3" fill="#2471A3" stroke="#1A5276" stroke-width="1.2"/>
  <rect x="119" y="1040" width="3" height="8" fill="#FFFFFF"/>
  <rect x="208" y="1040" width="3" height="8" fill="#FFFFFF"/>
  <rect x="270" y="1040" width="3" height="8" fill="#FFFFFF"/>
  <rect x="318" y="1040" width="3" height="8" fill="#FFFFFF"/>

  <text x="28" y="1078" font-size="13" font-style="italic" fill="#566573">Separate small-var + SV sets &#183; VCF + BED each</text>
  <text x="28" y="1096" font-size="13" font-style="italic" fill="#566573">&#215;3 references (GRCh37, GRCh38, CHM13v2.0)</text>
</g>

<g id="panelA-zone3">
  <rect x="18" y="1114" width="334" height="64" rx="6" fill="#FFFFFF" stroke="#C9D4DC" stroke-width="1"/>
  <text x="28" y="1134" font-size="14" font-weight="bold" fill="#1C2833">3&#160;&#160;Evaluation &#8212; internal QC</text>
  <text x="28" y="1152" font-size="13" fill="#2C3E50">Compare draft to known callsets &#x2192; analysis report</text>
  <text x="28" y="1168" font-size="12" font-style="italic" fill="#C0392B">&#x2192; optimize parameters &amp; re-run (rapid iteration)</text>
</g>

<g id="panelA-output">
  <line x1="185" y1="1178" x2="185" y2="1185" stroke="#2C3E50" stroke-width="1.8"/>
  <polygon points="185,1194 180.5,1185 189.5,1185" fill="#2C3E50"/>
  <rect x="18" y="1196" width="334" height="74" rx="6" fill="#D6EAF8" stroke="#2E86C1" stroke-width="1.8"/>
  <text x="185" y="1221" font-size="15" font-weight="bold" text-anchor="middle" fill="#154360">Draft benchmark sets</text>
  <text x="185" y="1241" font-size="13" text-anchor="middle" fill="#1A5276">small-variant + SV &#183; VCF + BED &#183; &#215;3 references</text>
  <text x="185" y="1258" font-size="13" text-anchor="middle" fill="#1A5276">&#x2192; external evaluation, panel (b)</text>
</g>

<g id="panelB-input">
  <rect x="381" y="540" width="334" height="50" rx="6" fill="#D6EAF8" stroke="#2E86C1" stroke-width="1.5"/>
  <text x="548" y="561" font-size="14" font-weight="bold" text-anchor="middle" fill="#154360">Draft benchmark sets &#8212; from panel (a)</text>
  <text x="548" y="579" font-size="13" text-anchor="middle" fill="#1A5276">VCF + BED &#183; small-var + SV &#183; &#215;3 references</text>
  <line x1="548" y1="590" x2="548" y2="605" stroke="#2C3E50" stroke-width="1.8"/>
  <polygon points="548,614 543.5,605 552.5,605" fill="#2C3E50"/>
</g>

<g id="panelB-callsets">
  <rect x="381" y="616" width="334" height="180" rx="6" fill="#FFFFFF" stroke="#E3D5C3" stroke-width="1"/>
  <text x="391" y="636" font-size="14" font-weight="bold" fill="#1C2833">External comparison callsets</text>
  <text x="391" y="652" font-size="13" fill="#566573">Evaluators call variants from own sequencing data:</text>
  <rect x="391" y="660" width="314" height="21" rx="4" fill="#F4F6F7" stroke="#AEB6BF" stroke-width="1"/>
  <text x="398" y="675" font-size="13" fill="#2C3E50">Illumina</text>
  <text x="698" y="675" font-size="12" text-anchor="end" fill="#7F8C8D">short read</text>
  <rect x="391" y="685" width="314" height="21" rx="4" fill="#F4F6F7" stroke="#AEB6BF" stroke-width="1"/>
  <text x="398" y="700" font-size="13" fill="#2C3E50">PacBio HiFi</text>
  <text x="698" y="700" font-size="12" text-anchor="end" fill="#7F8C8D">long read</text>
  <rect x="391" y="710" width="314" height="21" rx="4" fill="#F4F6F7" stroke="#AEB6BF" stroke-width="1"/>
  <text x="398" y="725" font-size="13" fill="#2C3E50">Oxford Nanopore (ONT)</text>
  <text x="698" y="725" font-size="12" text-anchor="end" fill="#7F8C8D">long read</text>
  <rect x="391" y="735" width="314" height="21" rx="4" fill="#F4F6F7" stroke="#AEB6BF" stroke-width="1"/>
  <text x="398" y="750" font-size="13" fill="#2C3E50">Element Biosciences</text>
  <text x="698" y="750" font-size="12" text-anchor="end" fill="#7F8C8D">short read</text>
  <rect x="391" y="760" width="314" height="21" rx="4" fill="#F4F6F7" stroke="#AEB6BF" stroke-width="1"/>
  <text x="398" y="775" font-size="13" fill="#2C3E50">Ultima</text>
  <text x="698" y="775" font-size="12" text-anchor="end" fill="#7F8C8D">short read</text>
  <text x="391" y="792" font-size="12" font-style="italic" fill="#566573">Small-variant + SV callsets from external groups</text>
  <line x1="548" y1="796" x2="548" y2="811" stroke="#2C3E50" stroke-width="1.8"/>
  <polygon points="548,820 543.5,811 552.5,811" fill="#2C3E50"/>
</g>

<g id="panelB-compare">
  <rect x="381" y="822" width="334" height="66" rx="6" fill="#FFFFFF" stroke="#E3D5C3" stroke-width="1"/>
  <text x="548" y="843" font-size="14" font-weight="bold" text-anchor="middle" fill="#1C2833">Compare benchmark vs callsets</text>
  <text x="548" y="861" font-size="13" text-anchor="middle" fill="#566573">hap.py / vcfeval (small variants) &#183; truvari (SVs)</text>
  <text x="548" y="878" font-size="13" text-anchor="middle" fill="#566573">comparisons on GRCh38</text>
  <line x1="548" y1="888" x2="548" y2="899" stroke="#2C3E50" stroke-width="1.8"/>
  <polygon points="548,908 543.5,899 552.5,899" fill="#2C3E50"/>
  <text x="548" y="922" font-size="13" font-weight="bold" text-anchor="middle" fill="#922B21">Discrepancies (potential FP / FN)</text>
  <line x1="548" y1="928" x2="548" y2="939" stroke="#2C3E50" stroke-width="1.8"/>
  <polygon points="548,948 543.5,939 552.5,939" fill="#2C3E50"/>
</g>

<g id="panelB-miqa">
  <rect x="381" y="950" width="334" height="144" rx="6" fill="#FDF6EC" stroke="#CA6F1E" stroke-width="1.2"/>
  <text x="548" y="970" font-size="14" font-weight="bold" text-anchor="middle" fill="#935116">Miqa curation (stratified random subset)</text>

  <g id="panelB-miqa-glyph">
    <rect x="391" y="980" width="80" height="72" rx="4" fill="#FFFFFF" stroke="#CA6F1E" stroke-width="1.2"/>
    <path d="M 391 992 L 391 984 Q 391 980 395 980 L 467 980 Q 471 980 471 984 L 471 992 Z" fill="#CA6F1E"/>
    <circle cx="398" cy="986" r="2" fill="#FFFFFF"/>
    <circle cx="405" cy="986" r="2" fill="#FFFFFF"/>
    <circle cx="412" cy="986" r="2" fill="#FFFFFF"/>
    <rect x="424" y="994" width="9" height="48" fill="#FDEBD0"/>
    <rect x="396" y="997" width="42" height="5" rx="2" fill="#BFC9CA"/>
    <rect x="424" y="997" width="5" height="5" fill="#4D5656"/>
    <rect x="401" y="1005" width="60" height="5" rx="2" fill="#BFC9CA"/>
    <rect x="424" y="1005" width="5" height="5" fill="#4D5656"/>
    <rect x="396" y="1013" width="52" height="5" rx="2" fill="#BFC9CA"/>
    <rect x="406" y="1021" width="60" height="5" rx="2" fill="#BFC9CA"/>
    <rect x="424" y="1021" width="5" height="5" fill="#4D5656"/>
    <rect x="396" y="1029" width="46" height="5" rx="2" fill="#BFC9CA"/>
    <rect x="410" y="1037" width="56" height="5" rx="2" fill="#BFC9CA"/>
    <rect x="424" y="1037" width="5" height="5" fill="#4D5656"/>
    <rect x="396" y="1045" width="66" height="4" rx="2" fill="#D5D8DC"/>
    <circle cx="413" cy="1069" r="10" fill="#D1F2EB" stroke="#0F8A6D" stroke-width="1.4"/>
    <path d="M 407 1069 L 411 1074 L 419 1063" fill="none" stroke="#0F8A6D" stroke-width="2.2"/>
    <circle cx="449" cy="1069" r="10" fill="#FADBD8" stroke="#C0392B" stroke-width="1.4"/>
    <line x1="444" y1="1064" x2="454" y2="1074" stroke="#C0392B" stroke-width="2.2"/>
    <line x1="454" y1="1064" x2="444" y2="1074" stroke="#C0392B" stroke-width="2.2"/>
  </g>

  <text x="481" y="992" font-size="13" fill="#2C3E50">&#x25B8; Pre-configured IGV sessions:</text>
  <text x="493" y="1009" font-size="12" fill="#566573">GRCh38 + Q100 haplotypes</text>
  <text x="481" y="1027" font-size="13" fill="#2C3E50">&#x25B8; Multi-tech read evidence:</text>
  <text x="493" y="1044" font-size="12" fill="#566573">Illumina, Element, HiFi, Onso, ONT-UL</text>
  <text x="481" y="1062" font-size="13" fill="#2C3E50">&#x25B8; Curated by submitting group</text>
  <text x="481" y="1080" font-size="13" fill="#2C3E50">&#x25B8; Classify: correct/incorrect/unsure</text>
</g>

<g id="panelB-outcomes">
  <line x1="548" y1="1094" x2="548" y2="1108" stroke="#2C3E50" stroke-width="1.8"/>
  <line x1="456" y1="1108" x2="640" y2="1108" stroke="#2C3E50" stroke-width="1.4"/>
  <line x1="456" y1="1108" x2="456" y2="1116" stroke="#C0392B" stroke-width="1.4"/>
  <polygon points="456,1124 451.5,1116 460.5,1116" fill="#C0392B"/>
  <line x1="640" y1="1108" x2="640" y2="1116" stroke="#CA6F1E" stroke-width="1.4"/>
  <polygon points="640,1124 635.5,1116 644.5,1116" fill="#CA6F1E"/>

  <rect x="381" y="1126" width="148" height="70" rx="5" fill="#FADBD8" stroke="#C0392B" stroke-width="1.2"/>
  <text x="455" y="1146" font-size="13" font-weight="bold" text-anchor="middle" fill="#922B21">Incorrect / unsure</text>
  <text x="455" y="1164" font-size="12" text-anchor="middle" fill="#922B21">NIST re-curation;</text>
  <text x="455" y="1179" font-size="12" text-anchor="middle" fill="#922B21">errors &#x2192; cycle hub</text>
  <rect x="566" y="1126" width="149" height="70" rx="5" fill="#FDEBD0" stroke="#CA6F1E" stroke-width="1.2"/>
  <text x="640" y="1146" font-size="13" font-weight="bold" text-anchor="middle" fill="#935116">Benchmark correct</text>
  <text x="640" y="1164" font-size="12" text-anchor="middle" fill="#935116">discrepancy = error in</text>
  <text x="640" y="1179" font-size="12" text-anchor="middle" fill="#935116">comparison callset</text>
</g>

<g id="panelC-principle">
  <text x="748" y="548" font-size="13" font-style="italic" fill="#566573">Is the benchmark fit for purpose?</text>
  <rect x="744" y="560" width="338" height="104" rx="6" fill="#FFFFFF" stroke="#D7BDE2" stroke-width="1"/>
  <text x="754" y="582" font-size="14" font-weight="bold" fill="#4A235A">Reliable Identification of Errors (RIDE)</text>
  <text x="754" y="598" font-size="12" font-style="italic" fill="#566573">Olson, Nat. Rev. Genet. 24, 2023</text>
  <text x="754" y="619" font-size="13" fill="#2C3E50">A benchmark is fit for purpose when discrepancies</text>
  <text x="754" y="635" font-size="13" fill="#2C3E50">with high-quality comparison callsets are reliably</text>
  <text x="754" y="651" font-size="13" fill="#2C3E50">errors in the callsets &#8212; not the benchmark.</text>
</g>

<g id="panelC-venn">
  <rect x="744" y="676" width="338" height="306" rx="6" fill="#FFFFFF" stroke="#D7BDE2" stroke-width="1"/>
  <text x="913" y="696" font-size="14" font-weight="bold" text-anchor="middle" fill="#1C2833">Benchmark vs comparison callset</text>
  <rect x="752" y="706" width="322" height="224" rx="4" fill="#F8F9FA" stroke="#566573" stroke-width="1.2"/>
  <text x="913" y="722" font-size="12" font-style="italic" text-anchor="middle" fill="#566573">Within benchmark regions (BED)</text>

  <text x="800" y="748" font-size="12" font-weight="bold" text-anchor="middle" fill="#1A5276">Benchmark calls</text>
  <text x="1016" y="748" font-size="12" font-weight="bold" text-anchor="middle" fill="#935116">Comparison callset</text>

  <circle cx="848" cy="822" r="86" fill="#85C1E9" fill-opacity="0.45" stroke="#2E86C1" stroke-width="1.8"/>
  <circle cx="966" cy="822" r="86" fill="#EB984E" fill-opacity="0.45" stroke="#CA6F1E" stroke-width="1.8"/>

  <text x="810" y="815" font-size="14" font-weight="bold" text-anchor="middle" fill="#1C2833">FNs</text>
  <text x="810" y="832" font-size="12" text-anchor="middle" fill="#2C3E50">unique to</text>
  <text x="810" y="846" font-size="12" text-anchor="middle" fill="#2C3E50">benchmark</text>
  <text x="907" y="817" font-size="15" font-weight="bold" text-anchor="middle" fill="#1C2833">TPs</text>
  <text x="907" y="835" font-size="12" text-anchor="middle" fill="#2C3E50">assumed</text>
  <text x="907" y="849" font-size="12" text-anchor="middle" fill="#2C3E50">correct</text>
  <text x="1004" y="815" font-size="14" font-weight="bold" text-anchor="middle" fill="#1C2833">FPs</text>
  <text x="1004" y="832" font-size="12" text-anchor="middle" fill="#2C3E50">unique to</text>
  <text x="1004" y="846" font-size="12" text-anchor="middle" fill="#2C3E50">callset</text>

  <line x1="810" y1="858" x2="863.1" y2="940.4" stroke="#C0392B" stroke-width="1.3" stroke-dasharray="7,4"/>
  <polygon points="868,948 860.2,942.3 866,938.5" fill="#C0392B"/>
  <line x1="1004" y1="858" x2="950.9" y2="940.4" stroke="#C0392B" stroke-width="1.3" stroke-dasharray="7,4"/>
  <polygon points="946,948 948,938.5 953.8,942.3" fill="#C0392B"/>
  <text x="913" y="966" font-size="13" font-weight="bold" text-anchor="middle" fill="#922B21">Discrepancies (FNs + FPs) &#x2192; curated in panel (b)</text>
</g>

<g id="panelC-verdict">
  <rect x="744" y="994" width="338" height="264" rx="6" fill="#FFFFFF" stroke="#D7BDE2" stroke-width="1"/>
  <text x="754" y="1016" font-size="14" font-weight="bold" fill="#1C2833">Curated outcomes decide fitness</text>

  <rect x="754" y="1030" width="178" height="24" fill="#EB984E" stroke="#CA6F1E" stroke-width="1.2"/>
  <rect x="936" y="1030" width="30" height="24" fill="#CD6155" stroke="#922B21" stroke-width="1.2"/>
  <rect x="970" y="1030" width="40" height="24" fill="#D5D8DC" stroke="#85929E" stroke-width="1.2"/>
  <rect x="754" y="1068" width="12" height="12" fill="#EB984E" stroke="#CA6F1E" stroke-width="1"/>
  <text x="771" y="1078" font-size="12" fill="#2C3E50">benchmark correct &#8212; error in comparison callset</text>
  <rect x="754" y="1088" width="12" height="12" fill="#CD6155" stroke="#922B21" stroke-width="1"/>
  <text x="771" y="1098" font-size="12" fill="#2C3E50">benchmark incorrect</text>
  <rect x="754" y="1108" width="12" height="12" fill="#D5D8DC" stroke="#85929E" stroke-width="1"/>
  <text x="771" y="1118" font-size="12" fill="#2C3E50">unsure</text>

  <circle cx="768" cy="1150" r="10" fill="#D1F2EB" stroke="#0F8A6D" stroke-width="1.4"/>
  <path d="M 762 1150 L 766 1155 L 774 1144" fill="none" stroke="#0F8A6D" stroke-width="2.2"/>
  <text x="786" y="1146" font-size="13" font-weight="bold" fill="#0E6655">Fit for purpose &#8212; pass</text>
  <text x="786" y="1163" font-size="13" fill="#2C3E50">Most discrepancies are errors in the</text>
  <text x="786" y="1179" font-size="13" fill="#2C3E50">comparison callsets, not the benchmark</text>

  <circle cx="768" cy="1212" r="10" fill="#FADBD8" stroke="#C0392B" stroke-width="1.4"/>
  <line x1="763" y1="1207" x2="773" y2="1217" stroke="#C0392B" stroke-width="2.2"/>
  <line x1="773" y1="1207" x2="763" y2="1217" stroke="#C0392B" stroke-width="2.2"/>
  <text x="786" y="1208" font-size="13" font-weight="bold" fill="#922B21">Not fit &#8212; fail</text>
  <text x="786" y="1225" font-size="13" fill="#2C3E50">Benchmark errors common; revise parameters</text>
  <text x="786" y="1241" font-size="13" fill="#2C3E50">&amp; re-run DeFrABB &#8212; red dashed path in cycle</text>
</g>

<g id="connector-ab">
  <path d="M 352 1233 L 362 1233 Q 366 1233 366 1229 L 366 569 Q 366 565 370 565 L 371 565" fill="none" stroke="#2E86C1" stroke-width="1.8"/>
  <polygon points="380,565 371,560.5 371,569.5" fill="#2E86C1"/>
</g>
</svg>
